<svg xmlns="http://www.w3.org/2000/svg" viewBox="0 0 32 32" width="32" height="32">
  <!-- 背景グラデーション -->
  <defs>
    <linearGradient id="bg" x1="0%" y1="0%" x2="100%" y2="100%">
      <stop offset="0%" style="stop-color:#232F3E"/>
      <stop offset="100%" style="stop-color:#1A252F"/>
    </linearGradient>
    <linearGradient id="aws" x1="0%" y1="0%" x2="100%" y2="100%">
      <stop offset="0%" style="stop-color:#FF9900"/>
      <stop offset="100%" style="stop-color:#FF7700"/>
    </linearGradient>
  </defs>
  
  <!-- 背景 -->
  <rect width="32" height="32" rx="6" fill="url(#bg)"/>
  
  <!-- AWS風クラウドアイコン -->
  <path d="M6 16c0-2 1.5-3.5 3.5-3.5S13 14 13 16c0 1-0.5 2-1 2.5h-4.5C7 18 6 17 6 16z" fill="url(#aws)"/>
  <circle cx="8" cy="15" r="1.5" fill="url(#aws)"/>
  <circle cx="11" cy="14" r="1.2" fill="url(#aws)"/>
  <circle cx="14" cy="15.5" r="1" fill="url(#aws)"/>
  
  <!-- URL/リンクアイコン -->
  <path d="M18 12c-1.1 0-2 0.9-2 2s0.9 2 2 2h2c1.1 0 2-0.9 2-2s-0.9-2-2-2h-2z" fill="#FFFFFF"/>
  <path d="M16 14h2v2h-2z" fill="none" stroke="#FFFFFF" stroke-width="1"/>
  <path d="M20 14h2v2h-2z" fill="none" stroke="#FFFFFF" stroke-width="1"/>
  
  <!-- クイズ/質問マーク -->
  <circle cx="24" cy="24" r="4" fill="url(#aws)"/>
  <text x="24" y="27.5" text-anchor="middle" fill="#FFFFFF" font-family="Arial, sans-serif" font-size="5" font-weight="bold">?</text>
</svg>
